<svg height='300px' width='300px'  fill="#000000" xmlns="http://www.w3.org/2000/svg" xmlns:xlink="http://www.w3.org/1999/xlink" version="1.1" x="0px" y="0px" viewBox="0 0 413.3 401.3" style="enable-background:new 0 0 413.3 401.3;" xml:space="preserve"><style type="text/css">
	.st0{stroke:#000000;stroke-miterlimit:10;}
	.st1{fill:none;stroke:#000000;stroke-miterlimit:10;}
</style><path class="st0" d="M70,259.1c-6.6-2.1-5-20-7.7-20.2c-2.2-0.2-4.1,12.3-9.4,26.2c-5.2,13.8-8.6,17.3-14,27  c-7.8,14-12.5,35.2-8,50.4c8,26.7,49.2,50.1,84.4,36.7c38.2-14.4,52.4-64.6,39-83.4c-7.3-10.2-29.2-20.3-41.9-20.8  c-1.7-0.1-7.3-0.1-13.4-3c-2.1-1-6.6-3.1-10.2-7.8c-3.6-4.6-2.8-7.1-5.5-8.5C78.9,253.5,74.4,260.5,70,259.1z"></path><path class="st0" d="M126.2,317L126.2,317c0.1-6.6,5.6-11.9,12.2-11.8l136.9,2c6.6,0.1,11.9,5.6,11.8,12.2v0  c-0.1,6.6-5.6,11.9-12.2,11.8l-136.9-2C131.4,329.1,126.1,323.6,126.2,317z"></path><path class="st0" d="M118.6,344.2L118.6,344.2c-0.2,6.6,5.1,12.1,11.7,12.3l111.1,2.6c6.6,0.2,12.1-5.1,12.3-11.7v0  c0.2-6.6-5.1-12.1-11.7-12.3l-111.1-2.6C124.3,332.3,118.7,337.6,118.6,344.2z"></path><path class="st0" d="M78.3,370.4L78.3,370.4c-0.2,6.6,5.1,12.1,11.7,12.3l95.7,2.2c6.6,0.2,12.1-5.1,12.3-11.7v0  c0.2-6.6-5.1-12.1-11.7-12.3l-95.7-2.2C84,358.6,78.4,363.8,78.3,370.4z"></path><path class="st0" d="M95.8,287.7L95.8,287.7c0.1-6.6,5.6-11.9,12.2-11.8l136.9,2c6.6,0.1,11.9,5.6,11.8,12.2v0  c-0.1,6.6-5.6,11.9-12.2,11.8l-136.9-2C101,299.8,95.7,294.3,95.8,287.7z"></path><path class="st0" d="M69.1,299.6l8.4,0c6.6,0,12-5.4,12-12c-0.1-26.2-0.1-52.4-0.2-78.6c-0.3-2.4-1.2-7.7-5.4-12.7  c-2.4-2.8-4.9-4.5-6.8-5.5c-1-0.2-2.1-0.3-3.3-0.4c-2-0.1-3.7,0.1-5.1,0.4c-2.5,1.3-6,3.5-8.5,7.3c-3.2,4.9-3.3,9.8-3.3,11.6  c0,26,0,52,0,78C57.1,294.2,62.5,299.6,69.1,299.6z"></path><path class="st0" d="M49.6,253.6"></path><path class="st0" d="M43,234.5"></path><path class="st1" d="M82.6,245.8"></path><path class="st1" d="M115.2,213.4"></path><path class="st0" d="M131,240.9"></path><path class="st0" d="M91.9,276.2"></path><path class="st0" d="M97.7,268.1"></path><path class="st0" d="M346,134.6c6.6,2,5.4,19.9,8.1,20c2.2,0.2,3.9-12.4,8.9-26.4c5-13.9,8.3-17.4,13.5-27.3  c7.5-14.2,11.8-35.4,7-50.5c-8.5-26.6-50.1-49.1-85.1-35.1c-37.9,15.2-51.2,65.6-37.5,84.1c7.5,10.1,29.5,19.8,42.3,20  c1.7,0,7.3,0,13.5,2.8c2.1,1,6.6,3,10.3,7.6c3.7,4.6,2.9,7.1,5.7,8.4C337.1,140.3,341.5,133.2,346,134.6z"></path><path class="st0" d="M288.7,77.7L288.7,77.7c0,6.6-5.4,12-12,12l-136.9,0.5c-6.6,0-12-5.4-12-12v0  c0-6.6,5.4-12,12-12l136.9-0.5C283.3,65.7,288.7,71.1,288.7,77.7z"></path><path class="st0" d="M295.8,50.4L295.8,50.4c0-6.6-5.3-12-11.9-12.1l-111.1-0.5c-6.6,0-12,5.3-12.1,11.9v0  c0,6.6,5.3,12,11.9,12.1l111.1,0.5C290.3,62.4,295.7,57,295.8,50.4z"></path><path class="st0" d="M335.6,23.4L335.6,23.4c0-6.6-5.3-12-11.9-12.1l-95.7-0.4c-6.6,0-12,5.3-12.1,11.9v0  c0,6.6,5.3,12,11.9,12.1l95.7,0.4C330.1,35.4,335.5,30,335.6,23.4z"></path><path class="st0" d="M319.6,106.5L319.6,106.5c0,6.6-5.4,12-12,12l-136.9,0.5c-6.6,0-12-5.4-12-12l0,0  c0-6.6,5.4-12,12-12l136.9-0.5C314.1,94.5,319.6,99.9,319.6,106.5z"></path><path class="st0" d="M346.1,94.1l-8.4,0.2c-6.6,0.1-11.9,5.7-11.7,12.3c0.5,26.2,1.1,52.4,1.6,78.6  c0.3,2.4,1.4,7.7,5.6,12.6c2.4,2.8,5,4.4,6.9,5.4c1,0.2,2.1,0.3,3.3,0.3c2,0,3.7-0.2,5.1-0.5c2.5-1.3,5.9-3.6,8.3-7.5  c3.1-5,3.1-9.8,3.1-11.6c-0.5-26-1-52-1.5-78C358.2,99.2,352.7,93.9,346.1,94.1z"></path><path class="st0" d="M366.4,139.7"></path><path class="st0" d="M373.4,158.7"></path><path class="st1" d="M333.6,148.1"></path><path class="st1" d="M301.7,181.1"></path><path class="st0" d="M285.3,153.9"></path><path class="st0" d="M323.8,117.9"></path><path class="st0" d="M318.1,126.1"></path></svg>