<?xml version="1.0" encoding="UTF-8"?>
<svg width="157px" height="15px" viewBox="0 0 157 15" version="1.1" xmlns="http://www.w3.org/2000/svg" xmlns:xlink="http://www.w3.org/1999/xlink">
    <!-- Generator: Sketch 53 (72520) - https://sketchapp.com -->
    <title>SPOONUI</title>
    <desc>Created with Sketch.</desc>
    <g id="Page-1" stroke="none" stroke-width="1" fill="none" fill-rule="evenodd">
        <path d="M4.683,14.343 C3.67499496,14.343 2.77900392,14.1505019 1.995,13.7655 C1.21099608,13.3804981 0.54600273,12.8800031 0,12.264 L0.63,11.592 C1.13400252,12.1660029 1.7359965,12.6209983 2.436,12.957 C3.1360035,13.2930017 3.88499601,13.461 4.683,13.461 C5.74700532,13.461 6.58699692,13.2055026 7.203,12.6945 C7.81900308,12.1834974 8.127,11.5150041 8.127,10.689 C8.127,10.2549978 8.06050067,9.8875015 7.9275,9.5865 C7.79449934,9.2854985 7.61600112,9.02650109 7.392,8.8095 C7.16799888,8.59249892 6.90550151,8.40700077 6.6045,8.253 C6.30349849,8.09899923 5.98500168,7.94500077 5.649,7.791 L3.549,6.846 C3.25499853,6.71999937 2.94000168,6.56600091 2.604,6.384 C2.26799832,6.20199909 1.96350137,5.97450137 1.6905,5.7015 C1.41749864,5.42849863 1.19000091,5.10650186 1.008,4.7355 C0.82599909,4.36449815 0.735,3.92000259 0.735,3.402 C0.735,2.89799748 0.836498985,2.43950206 1.0395,2.0265 C1.24250102,1.61349793 1.52249821,1.25650151 1.8795,0.9555 C2.23650178,0.654498495 2.66349752,0.42000084 3.1605,0.252 C3.65750249,0.08399916 4.19299713,0 4.767,0 C5.6070042,0 6.35249674,0.164498355 7.0035,0.4935 C7.65450326,0.822501645 8.1899979,1.21099776 8.61,1.659 L8.064,2.289 C7.65799797,1.8689979 7.18200273,1.52950129 6.636,1.2705 C6.08999727,1.01149871 5.4670035,0.882 4.767,0.882 C3.84299538,0.882 3.1010028,1.10599776 2.541,1.554 C1.9809972,2.00200224 1.701,2.60399622 1.701,3.36 C1.701,3.76600203 1.77799923,4.1089986 1.932,4.389 C2.08600077,4.6690014 2.28199881,4.91049899 2.52,5.1135 C2.75800119,5.31650102 3.0169986,5.49149927 3.297,5.6385 C3.5770014,5.78550074 3.84299874,5.91499944 4.095,6.027 L6.195,6.951 C6.58700196,7.11900084 6.95799825,7.30799895 7.308,7.518 C7.65800175,7.72800105 7.96599867,7.9729986 8.232,8.253 C8.49800133,8.5330014 8.71149919,8.86549808 8.8725,9.2505 C9.03350081,9.63550193 9.114,10.0939973 9.114,10.626 C9.114,11.1580027 9.00900105,11.6514977 8.799,12.1065 C8.58899895,12.5615023 8.29150192,12.9534984 7.9065,13.2825 C7.52149808,13.6115016 7.05600273,13.8704991 6.51,14.0595 C5.96399727,14.2485009 5.35500336,14.343 4.683,14.343 Z M22.512,14.091 L22.512,0.252 L25.998,0.252 C26.7820039,0.252 27.4854969,0.318499335 28.1085,0.4515 C28.7315031,0.584500665 29.2564979,0.80499846 29.6835,1.113 C30.1105021,1.42100154 30.4394988,1.81999755 30.6705,2.31 C30.9015012,2.80000245 31.017,3.40199643 31.017,4.116 C31.017,5.47400679 30.5830043,6.48549668 29.715,7.1505 C28.8469957,7.81550333 27.6360078,8.148 26.082,8.148 L23.478,8.148 L23.478,14.091 L22.512,14.091 Z M23.478,7.329 L25.851,7.329 C27.2650071,7.329 28.3149966,7.07700252 29.001,6.573 C29.6870034,6.06899748 30.03,5.25000567 30.03,4.116 C30.03,2.95399419 29.6765035,2.15600217 28.9695,1.722 C28.2624965,1.28799783 27.1950071,1.071 25.767,1.071 L23.478,1.071 L23.478,7.329 Z M49.35,14.343 C48.5239959,14.343 47.7610035,14.1715017 47.061,13.8285 C46.3609965,13.4854983 45.7590025,12.9990032 45.255,12.369 C44.7509975,11.7389969 44.3590014,10.9795044 44.079,10.0905 C43.7989986,9.20149556 43.659,8.21100546 43.659,7.119 C43.659,6.02699454 43.7989986,5.04350437 44.079,4.1685 C44.3590014,3.29349562 44.7509975,2.54450311 45.255,1.9215 C45.7590025,1.29849689 46.3609965,0.822501645 47.061,0.4935 C47.7610035,0.164498355 48.5239959,0 49.35,0 C50.1900042,0 50.9599965,0.164498355 51.66,0.4935 C52.3600035,0.822501645 52.9619975,1.29849689 53.466,1.9215 C53.9700025,2.54450311 54.3619986,3.29349562 54.642,4.1685 C54.9220014,5.04350437 55.062,6.02699454 55.062,7.119 C55.062,8.21100546 54.9220014,9.20149556 54.642,10.0905 C54.3619986,10.9795044 53.9700025,11.7389969 53.466,12.369 C52.9619975,12.9990032 52.3600035,13.4854983 51.66,13.8285 C50.9599965,14.1715017 50.1900042,14.343 49.35,14.343 Z M49.35,13.461 C50.0500035,13.461 50.6869971,13.3105015 51.261,13.0095 C51.8350029,12.7084985 52.3284979,12.2815028 52.7415,11.7285 C53.1545021,11.1754972 53.4729989,10.5105039 53.697,9.7335 C53.9210011,8.95649611 54.033,8.08500483 54.033,7.119 C54.033,6.16699524 53.9210011,5.30600385 53.697,4.536 C53.4729989,3.76599615 53.1545021,3.1115027 52.7415,2.5725 C52.3284979,2.03349731 51.8350029,1.61700147 51.261,1.323 C50.6869971,1.02899853 50.0500035,0.882 49.35,0.882 C48.6499965,0.882 48.0095029,1.02899853 47.4285,1.323 C46.8474971,1.61700147 46.354002,2.03349731 45.948,2.5725 C45.541998,3.1115027 45.2270011,3.76599615 45.003,4.536 C44.7789989,5.30600385 44.667,6.16699524 44.667,7.119 C44.667,8.08500483 44.7789989,8.95649611 45.003,9.7335 C45.2270011,10.5105039 45.541998,11.1754972 45.948,11.7285 C46.354002,12.2815028 46.8474971,12.7084985 47.4285,13.0095 C48.0095029,13.3105015 48.6499965,13.461 49.35,13.461 Z M73.542,14.343 C72.7159959,14.343 71.9530035,14.1715017 71.253,13.8285 C70.5529965,13.4854983 69.9510025,12.9990032 69.447,12.369 C68.9429975,11.7389969 68.5510014,10.9795044 68.271,10.0905 C67.9909986,9.20149556 67.851,8.21100546 67.851,7.119 C67.851,6.02699454 67.9909986,5.04350437 68.271,4.1685 C68.5510014,3.29349562 68.9429975,2.54450311 69.447,1.9215 C69.9510025,1.29849689 70.5529965,0.822501645 71.253,0.4935 C71.9530035,0.164498355 72.7159959,0 73.542,0 C74.3820042,0 75.1519965,0.164498355 75.852,0.4935 C76.5520035,0.822501645 77.1539975,1.29849689 77.658,1.9215 C78.1620025,2.54450311 78.5539986,3.29349562 78.834,4.1685 C79.1140014,5.04350437 79.254,6.02699454 79.254,7.119 C79.254,8.21100546 79.1140014,9.20149556 78.834,10.0905 C78.5539986,10.9795044 78.1620025,11.7389969 77.658,12.369 C77.1539975,12.9990032 76.5520035,13.4854983 75.852,13.8285 C75.1519965,14.1715017 74.3820042,14.343 73.542,14.343 Z M73.542,13.461 C74.2420035,13.461 74.8789971,13.3105015 75.453,13.0095 C76.0270029,12.7084985 76.5204979,12.2815028 76.9335,11.7285 C77.3465021,11.1754972 77.6649989,10.5105039 77.889,9.7335 C78.1130011,8.95649611 78.225,8.08500483 78.225,7.119 C78.225,6.16699524 78.1130011,5.30600385 77.889,4.536 C77.6649989,3.76599615 77.3465021,3.1115027 76.9335,2.5725 C76.5204979,2.03349731 76.0270029,1.61700147 75.453,1.323 C74.8789971,1.02899853 74.2420035,0.882 73.542,0.882 C72.8419965,0.882 72.2015029,1.02899853 71.6205,1.323 C71.0394971,1.61700147 70.546002,2.03349731 70.14,2.5725 C69.733998,3.1115027 69.4190011,3.76599615 69.195,4.536 C68.9709989,5.30600385 68.859,6.16699524 68.859,7.119 C68.859,8.08500483 68.9709989,8.95649611 69.195,9.7335 C69.4190011,10.5105039 69.733998,11.1754972 70.14,11.7285 C70.546002,12.2815028 71.0394971,12.7084985 71.6205,13.0095 C72.2015029,13.3105015 72.8419965,13.461 73.542,13.461 Z M92.925,14.091 L92.925,0.252 L93.933,0.252 L99.771,10.017 L101.325,12.768 L101.409,12.768 L101.325,10.752 C101.297,10.0799966 101.283,9.40800336 101.283,8.736 L101.283,0.252 L102.207,0.252 L102.207,14.091 L101.199,14.091 L95.361,4.326 L93.807,1.575 L93.723,1.575 C93.7510001,2.24700336 93.7789999,2.90149682 93.807,3.5385 C93.8350001,4.17550319 93.849,4.82999664 93.849,5.502 L93.849,14.091 L92.925,14.091 Z M136.08,14.343 C135.491997,14.343 134.918003,14.2555009 134.358,14.0805 C133.797997,13.9054991 133.301002,13.6045021 132.867,13.1775 C132.432998,12.7504979 132.086501,12.1800036 131.8275,11.466 C131.568499,10.7519964 131.439,9.85600539 131.439,8.778 L131.439,0.252 L132.405,0.252 L132.405,8.673 C132.405,9.59700462 132.506499,10.363497 132.7095,10.9725 C132.912501,11.581503 133.181998,12.0714981 133.518,12.4425 C133.854002,12.8135019 134.242498,13.0759992 134.6835,13.23 C135.124502,13.3840008 135.589998,13.461 136.08,13.461 C136.584003,13.461 137.063498,13.3840008 137.5185,13.23 C137.973502,13.0759992 138.372498,12.8135019 138.7155,12.4425 C139.058502,12.0714981 139.334999,11.581503 139.545,10.9725 C139.755001,10.363497 139.86,9.59700462 139.86,8.673 L139.86,0.252 L140.763,0.252 L140.763,8.778 C140.763,9.85600539 140.630001,10.7519964 140.364,11.466 C140.097999,12.1800036 139.748002,12.7504979 139.314,13.1775 C138.879998,13.6045021 138.383003,13.9054991 137.823,14.0805 C137.262997,14.2555009 136.682003,14.343 136.08,14.343 Z M155.295,14.091 L155.295,0.252 L156.261,0.252 L156.261,14.091 L155.295,14.091 Z" id="SPOONUI" fill="#299DF5" fill-rule="nonzero"></path>
    </g>
</svg>