<?xml version="1.0" encoding="UTF-8"?>
<svg width="4px" height="7px" viewBox="0 0 4 7" version="1.1" xmlns="http://www.w3.org/2000/svg" xmlns:xlink="http://www.w3.org/1999/xlink">
    <!-- Generator: Sketch 52.5 (67469) - http://www.bohemiancoding.com/sketch -->
    <title>Arrow</title>
    <desc>Created with Sketch.</desc>
    <g id="Tilkynna-UI-Kit---Ungrouped" stroke="none" stroke-width="1" fill="none" fill-rule="evenodd">
        <g id="Tilkynna-UI-Kit" transform="translate(-253.000000, -5787.000000)" fill="#A1A7AF">
            <path d="M252.036752,5792.03594 L255.537835,5792.03594 C255.812707,5792.03594 256.035534,5792.26769 256.035534,5792.53553 C256.035534,5792.81145 255.82069,5793.03513 255.537835,5793.03513 L251.556959,5793.03513 C251.550383,5793.0354 251.543782,5793.03553 251.537159,5793.03553 C251.307057,5793.03553 251.113288,5792.88612 251.055282,5792.67244 C251.042426,5792.62863 251.035534,5792.58264 251.035534,5792.53553 C251.035534,5792.51995 251.03622,5792.50452 251.037565,5792.4893 L251.037565,5788.53323 C251.037565,5788.25836 251.26931,5788.03553 251.537159,5788.03553 C251.813077,5788.03553 252.036752,5788.25038 252.036752,5788.53323 L252.036752,5792.03594 Z" id="Arrow" transform="translate(253.535534, 5790.535534) rotate(-135.000000) translate(-253.535534, -5790.535534) "></path>
        </g>
    </g>
</svg>